<?xml version="1.0" encoding="UTF-8" standalone="no"?>
<svg width="128px" height="127px" viewBox="0 0 128 127" version="1.1" xmlns="http://www.w3.org/2000/svg" xmlns:xlink="http://www.w3.org/1999/xlink">
    <!-- Generator: Sketch 44.1 (41455) - http://www.bohemiancoding.com/sketch -->
    <title>layers</title>
    <desc>Created with Sketch.</desc>
    <defs></defs>
    <g id="Page-1" stroke="none" stroke-width="1" fill="none" fill-rule="evenodd">
        <g id="50-Design-Tool-Axonometric-Icons" transform="translate(-786.000000, -189.000000)" fill-rule="nonzero">
            <g id="layers" transform="translate(786.000000, 189.000000)">
                <polygon id="Shape" fill="#5AAAE7" points="63.7945 50.3965 0.0065 87.466 0 89.73375 64.20525 126.80275 127.9935 89.733 128 87.46525"></polygon>
                <polygon id="Shape" fill="#5AAAE7" points="128 87.46525 127.9935 89.733 64.20525 126.80275 64.21175 124.535"></polygon>
                <polygon id="Shape" fill="#78BAEC" points="64.21175 124.535 64.20525 126.80275 0 89.73375 0.0065 87.466"></polygon>
                <polygon id="Shape" fill="#97C7EF" points="128 87.46525 64.21175 124.535 0.0065 87.466 63.7945 50.39625"></polygon>
                <polygon id="Shape" fill="#65C27C" points="63.7945 25.29675 0.0065 62.36625 0 64.63425 64.20525 101.70325 127.9935 64.6335 128 62.36575"></polygon>
                <polygon id="Shape" fill="#65C27C" points="128 62.36575 127.9935 64.6335 64.20525 101.70325 64.21175 99.43525"></polygon>
                <polygon id="Shape" fill="#7BCC92" points="64.21175 99.43525 64.20525 101.70325 0 64.63425 0.0065 62.36625"></polygon>
                <polygon id="Shape" fill="#94D6A8" points="128 62.36575 64.21175 99.43525 0.0065 62.36625 63.7945 25.29675"></polygon>
                <polygon id="Shape" fill="#FF6342" points="63.7945 0.19725 0.0065 37.26675 0 39.5345 64.20525 76.6035 127.9935 39.534 128 37.26625"></polygon>
                <polygon id="Shape" fill="#FF3502" points="128 37.26625 127.9935 39.534 64.20525 76.6035 64.21175 74.33575"></polygon>
                <polygon id="Shape" fill="#FF5023" points="64.21175 74.33575 64.20525 76.6035 0 39.5345 0.0065 37.26675"></polygon>
                <polygon id="Shape" fill="#FF6342" points="128 37.26625 64.21175 74.33575 0.0065 37.26675 63.7945 0.19725"></polygon>
            </g>
        </g>
    </g>
</svg>